<svg xmlns="http://www.w3.org/2000/svg" width="98.25" height="98.25" viewBox="0 0 98.25 98.25" xml:space="preserve" fill="#fff"><path d="M97.541 54.839h-.004l.009-8.955-9.051.044.004 18.908 9.021-.002zM85.249 40.303c-.834-2.274-2.254-3.938-4.483-4.883-1.854-.785-3.814-1.023-5.799-.897-3.317.209-6.062 1.516-7.863 4.448-.038.063-.083.133-.202.069l.007-3.843-8.67.014-.009 8.318c-.176-.23-.266-.477-.359-.723-1.563-4.03-4.344-6.757-8.553-7.907-2.732-.746-5.505-.885-8.237-.223-5.889 1.425-9.932 5.044-11.544 11.04l-.148.617-12.052-.01-.002 6.083 4.9-.015-.019.614a40 40 0 0 0 .003 3.109c.019.407-.165.583-.457.761-1.678 1.035-3.522 1.348-5.451 1.195-3.808-.299-6.312-3.052-7.01-6.698-.246-1.278-.211-2.567-.132-3.856.041-.17.09-.338.12-.51.324-1.852 1.067-3.477 2.449-4.801 1.295-1.242 2.845-2.098 4.623-2.189 2.984-.155 5.73.542 7.984 2.691.188.178.295.171.463-.026a804 804 0 0 1 4.432-5.136c.216-.247.142-.375-.077-.551-1.056-.853-2.195-1.571-3.466-2.048-4.872-1.829-9.836-2.066-14.828-.622-3.668 1.06-6.63 3.174-8.648 6.47-1.259 2.054-1.986 4.295-2.1 6.717-.222 1.522-.112 3.037.136 4.545.514 3.137 1.861 5.866 4.131 8.096 1.871 1.84 4.132 3.052 6.643 3.801 2.913.867 5.886.958 8.887.704 3.415-.289 6.697-1.079 9.81-2.539.182-.084.413-.23.413-.23l.009-5.646c0-.182.015-.364.03-.685.157.314.253.497.343.683 1.121 2.312 2.728 4.2 4.863 5.646 3.351 2.271 7.091 3.116 11.059 2.857 2.702-.177 5.273-.943 7.554-2.523 1.195-.828 2.363-1.674 3.322-2.783l.341-.363c-1.877-1.339-4.497-3.277-6.352-4.648l-.288.395c-.354.494-.791.917-1.242 1.323-3.524 3.17-9.91 2.313-11.507-3.058l-.194-.689c6.279 0 13.861.008 20.143-.016l-.009 12.465c2.62-.021 6.44-.022 9.061.001l-.017-14.866c-.002-1.059.041-2.11.203-3.157.061-.245.106-.494.18-.736.289-.962.656-1.87 1.443-2.568 1.164-1.032 2.563-1.198 4.007-1.124 1.875.096 3.149 1.065 3.751 2.863.442 1.205.503 3.433.503 3.842.002 4.846.006 10.917-.009 15.762h9.001l.01-16.989c-.015-2.576-.196-5.111-1.097-7.571m-41.22 6.004c-1.78 0-4.232-.009-6.013.006l.131-.645c1.076-5.574 8.336-5.585 10.662-2.813.751.897 1.046 1.972 1.175 3.107l.028.342c-1.817.005-4.166.003-5.983.003m48.978-1.828c2.883.028 5.243-2.326 5.243-5.188.001-2.875-2.354-5.212-5.241-5.2a5.21 5.21 0 0 0-5.211 5.228c-.066 2.474 2.016 5.129 5.209 5.16"/></svg>